# xmcd
# 
# Track frame offsets:
#     150
#     17271
#     33470
#     54591
#     71958
#     91117
#     113043
#     130214
#     151077
#     167721
#     185941
#     209356
#     226223
#     244146
# 
# Disc length: 3492
# 
# Revision: 0
# Processed by: cddbd v1.5.2PL0 Copyright (c) Steve Scherf et al.
# Submitted via: fre:ac v1.0.17
# 
DISCID=b80da20e
DTITLE=Tim McGraw - Love Story
DYEAR=2014
DGENRE=Country
TTITLE0=It's Your Love (w/Faith Hill)
TTITLE1=Just To See You Smile
TTITLE2=My Best Friend
TTITLE3=When The Stars Go Blue
TTITLE4=She's My Kind Of Rain
TTITLE5=Everywhere
TTITLE6=Not A Moment Too Soon
TTITLE7=Watch The Wind Blow By
TTITLE8=My Little Girl (from My Friend Flicka)
TTITLE9=Unbroken
TTITLE10=Tiny Dancer
TTITLE11=Still
TTITLE12=I Just Love You
TTITLE13=What About You
EXTD=
EXTT0=
EXTT1=
EXTT2=
EXTT3=
EXTT4=
EXTT5=
EXTT6=
EXTT7=
EXTT8=
EXTT9=
EXTT10=
EXTT11=
EXTT12=
EXTT13=
PLAYORDER=
